<svg xmlns="http://www.w3.org/2000/svg" viewBox="0 0 1200 800">
  <rect width="1200" height="800" rx="64" fill="#FAF6EF"/>
  <rect width="1200" height="449" rx="64" fill="#C7DDEA"/>
  <ellipse cx="600" cy="678" rx="650" ry="190" fill="#4FA98F"/>
  <rect x="811" y="145" width="300" height="487" rx="70" fill="#FFFDF8"/>
  <rect x="917" y="279" width="194" height="353" rx="55" fill="#EADFCB"/>
  <ellipse cx="514" cy="393" rx="76" ry="88" fill="#5A4039"/>
  <ellipse cx="514" cy="417" rx="61" ry="69" fill="#6B4A40"/>
  <circle cx="462" cy="371" r="30" fill="#33413C"/>
  <circle cx="566" cy="371" r="30" fill="#33413C"/>
  <ellipse cx="493" cy="416" rx="7" ry="13" fill="#FFFDF8"/>
  <ellipse cx="535" cy="416" rx="7" ry="13" fill="#FFFDF8"/>
  <ellipse cx="514" cy="456" rx="24" ry="11" fill="#FFFDF8"/>
  <rect x="443" y="467" width="142" height="165" rx="61" fill="#4FA98F"/>
  <ellipse cx="557" cy="552" rx="43" ry="34" fill="#4FA98F"/>
  <circle cx="557" cy="552" r="17" fill="#C7DDEA"/>
  <rect x="528" y="571" width="58" height="42" rx="20" fill="#4FA98F"/>
  <ellipse cx="738" cy="366" rx="64" ry="74" fill="#33413C"/>
  <ellipse cx="738" cy="384" rx="53" ry="58" fill="#6B4A40"/>
  <ellipse cx="718" cy="383" rx="7" ry="13" fill="#FFFDF8"/>
  <ellipse cx="758" cy="383" rx="7" ry="13" fill="#FFFDF8"/>
  <rect x="726" y="416" width="25" height="8" rx="4" fill="#FFFDF8"/>
  <rect x="673" y="440" width="130" height="175" rx="59" fill="#EADFCB"/>
  <rect x="637" y="424" width="59" height="25" rx="12" fill="#6B4A40"/>
  <ellipse cx="637" cy="407" rx="13" ry="24" fill="#6B4A40"/>
</svg>
