<svg xmlns="http://www.w3.org/2000/svg" viewBox="0 0 1200 800">
  <rect width="1200" height="800" rx="64" fill="#FAF6EF"/>
  <rect x="75" y="89" width="1050" height="620" rx="76" fill="#FFFDF8"/>
  <rect x="122" y="145" width="218" height="176" rx="40" fill="#C7DDEA"/>
  <rect x="874" y="170" width="76" height="76" rx="38" fill="#E8A08D"/>
  <circle cx="912" cy="208" r="19" fill="#F6E3B4"/>
  <ellipse cx="600" cy="675" rx="510" ry="90" fill="#EADFCB"/>
  <rect x="768" y="365" width="230" height="180" rx="55" fill="#C7DDEA"/>
  <ellipse cx="546" cy="391" rx="77" ry="89" fill="#5A4039"/>
  <ellipse cx="546" cy="415" rx="62" ry="70" fill="#6B4A40"/>
  <circle cx="493" cy="368" r="31" fill="#33413C"/>
  <circle cx="599" cy="368" r="31" fill="#33413C"/>
  <ellipse cx="525" cy="414" rx="7" ry="11" fill="#FFFDF8"/>
  <ellipse cx="567" cy="414" rx="7" ry="11" fill="#FFFDF8"/>
  <rect x="533" y="450" width="26" height="8" rx="4" fill="#FFFDF8"/>
  <rect x="475" y="468" width="142" height="151" rx="61" fill="#4FA98F"/>
  <ellipse cx="450" cy="442" rx="33" ry="53" fill="#6B4A40"/>
  <ellipse cx="642" cy="442" rx="33" ry="53" fill="#6B4A40"/>
  <rect x="425" y="487" width="53" height="111" rx="26" fill="#6B4A40"/>
  <rect x="614" y="487" width="53" height="111" rx="26" fill="#6B4A40"/>
  <ellipse cx="832" cy="338" rx="49" ry="55" fill="#5A4039"/>
  <ellipse cx="832" cy="350" rx="40" ry="44" fill="#6B4A40"/>
  <rect x="791" y="390" width="82" height="125" rx="39" fill="#E8A08D"/>
  <ellipse cx="932" cy="338" rx="49" ry="55" fill="#5A4039"/>
  <ellipse cx="932" cy="350" rx="40" ry="44" fill="#6B4A40"/>
  <rect x="891" y="390" width="82" height="125" rx="39" fill="#C7DDEA"/>
</svg>
