<svg xmlns="http://www.w3.org/2000/svg" viewBox="0 0 1200 800">
  <rect width="1200" height="800" rx="64" fill="#FAF6EF"/>
  <rect x="78" y="88" width="1044" height="620" rx="76" fill="#FFFDF8"/>
  <ellipse cx="600" cy="671" rx="500" ry="88" fill="#EADFCB"/>
  <rect x="294" y="321" width="432" height="242" rx="104" fill="#C7DDEA"/>
  <rect x="342" y="506" width="326" height="112" rx="54" fill="#4FA98F"/>
  <rect x="620" y="569" width="49" height="98" rx="22" fill="#2E6F5E"/>
  <ellipse cx="510" cy="301" rx="93" ry="102" fill="#8B624E"/>
  <ellipse cx="510" cy="319" rx="76" ry="83" fill="#B9825D"/>
  <ellipse cx="483" cy="318" rx="9" ry="16" fill="#33413C"/>
  <ellipse cx="537" cy="318" rx="9" ry="16" fill="#33413C"/>
  <rect x="495" y="359" width="30" height="9" rx="4" fill="#33413C"/>
  <ellipse cx="456" cy="274" rx="16" ry="9" fill="#33413C"/>
  <ellipse cx="564" cy="274" rx="16" ry="9" fill="#33413C"/>
  <rect x="433" y="382" width="154" height="158" rx="66" fill="#C7DDEA"/>
  <rect x="462" y="465" width="96" height="44" rx="22" fill="#E8A08D"/>
  <rect x="480" y="450" width="61" height="27" rx="13" fill="#4FA98F"/>
  <circle cx="493" cy="483" r="8" fill="#33413C"/>
  <circle cx="534" cy="483" r="8" fill="#33413C"/>
  <ellipse cx="864" cy="364" rx="71" ry="83" fill="#33413C"/>
  <ellipse cx="864" cy="381" rx="58" ry="64" fill="#B9825D"/>
  <ellipse cx="844" cy="380" rx="7" ry="13" fill="#33413C"/>
  <ellipse cx="884" cy="380" rx="7" ry="13" fill="#33413C"/>
  <rect x="851" y="414" width="27" height="8" rx="4" fill="#33413C"/>
  <rect x="800" y="450" width="128" height="170" rx="60" fill="#4FA98F"/>
  <rect x="755" y="470" width="68" height="34" rx="17" fill="#B9825D"/>
</svg>
