<svg xmlns="http://www.w3.org/2000/svg" viewBox="0 0 1200 800">
  <rect width="1200" height="800" rx="64" fill="#FAF6EF"/>
  <rect x="71" y="90" width="1058" height="620" rx="76" fill="#E8A08D"/>
  <rect x="120" y="139" width="324" height="260" rx="48" fill="#C7DDEA"/>
  <rect x="150" y="170" width="264" height="198" rx="32" fill="#5E6E68"/>
  <rect x="193" y="184" width="16" height="80" rx="8" fill="#EADFCB" transform="rotate(24 201 224)"/>
  <rect x="288" y="198" width="16" height="80" rx="8" fill="#EADFCB" transform="rotate(24 296 238)"/>
  <rect x="266" y="268" width="713" height="385" rx="155" fill="#F6E3B4"/>
  <ellipse cx="614" cy="328" rx="110" ry="64" fill="#E8A08D"/>
  <circle cx="644" cy="406" r="31" fill="#C7DDEA"/>
  <ellipse cx="557" cy="433" rx="75" ry="87" fill="#33413C"/>
  <ellipse cx="557" cy="453" rx="61" ry="68" fill="#B07A59"/>
  <ellipse cx="535" cy="451" rx="12" ry="13" fill="#FFFDF8"/>
  <ellipse cx="581" cy="451" rx="12" ry="13" fill="#FFFDF8"/>
  <ellipse cx="535" cy="451" rx="5" ry="8" fill="#33413C"/>
  <ellipse cx="581" cy="451" rx="5" ry="8" fill="#33413C"/>
  <ellipse cx="557" cy="493" rx="24" ry="11" fill="#33413C"/>
  <rect x="484" y="505" width="146" height="125" rx="59" fill="#C7DDEA"/>
  <rect x="421" y="423" width="51" height="28" rx="14" fill="#B07A59"/>
  <ellipse cx="440" cy="393" rx="18" ry="49" fill="#B07A59"/>
  <ellipse cx="762" cy="452" rx="70" ry="82" fill="#33413C"/>
  <ellipse cx="762" cy="469" rx="58" ry="64" fill="#B07A59"/>
  <ellipse cx="741" cy="468" rx="7" ry="13" fill="#FFFDF8"/>
  <ellipse cx="783" cy="468" rx="7" ry="13" fill="#FFFDF8"/>
  <rect x="750" y="502" width="27" height="8" rx="4" fill="#33413C"/>
  <rect x="697" y="526" width="130" height="126" rx="58" fill="#4FA98F"/>
  <rect x="836" y="479" width="41" height="21" rx="10" fill="#C7DDEA"/>
  <ellipse cx="878" cy="489" rx="19" ry="15" fill="#C7DDEA"/>
</svg>
